<svg xmlns="http://www.w3.org/2000/svg" viewBox="0 0 333333 333333" shape-rendering="geometricPrecision" text-rendering="geometricPrecision" image-rendering="optimizeQuality" fill-rule="evenodd" clip-rule="evenodd"><defs><linearGradient id="c" gradientUnits="userSpaceOnUse" x1="139644" y1="1216.54" x2="139644" y2="154838"><stop offset="0" stop-color="#0ad778"/><stop offset="1" stop-color="#01ef75"/></linearGradient><linearGradient id="a" gradientUnits="userSpaceOnUse" x1="131794" y1="175885" x2="131794" y2="314014"><stop offset="0" stop-color="#fe3e4a"/><stop offset="1" stop-color="#e31f50"/></linearGradient><linearGradient id="b" gradientUnits="userSpaceOnUse" x1="203724" y1="166762" x2="301448" y2="166762"><stop offset="0" stop-color="#febe00"/><stop offset="1" stop-color="#ffd900"/></linearGradient><linearGradient id="d" gradientUnits="userSpaceOnUse" x1="101563" y1="73139" x2="101563" y2="250453"><stop offset="0" stop-color="#02c4ff"/><stop offset="1" stop-color="#01e2ff"/></linearGradient></defs><path d="M239294 224715L61656 327719c-5862 3400-8711 4828-15749 5612-1462 163-20263-7299-21614-7313l162266-169613 52735 68309v1z" fill="url(#a)"/><path d="M239323 108780l51810 29915c7151 4128 13345 7157 18724 13758 8759 10753 7617 23077-5003 33454-5577 4586-13106 8393-19403 12044l-46300 26791-52595-68339 52767-47624z" fill="url(#b)"/><path d="M39911 57c300-19 602-32 905-41 12993-368 19780 5461 30426 11735l168136 97065-52820 47588L39912 55v2z" fill="url(#c)"/><path d="M41278 518l145281 155887L24334 325975c-1040-1232-1950-2595-2736-4072-5033-9475-3621-24057-3621-34750V44552c0-7160-533-15777 646-23242C20279 10832 35301-2382 41277 519z" fill="url(#d)"/></svg>