<svg width="42" height="41" viewBox="0 0 42 41" fill="none" xmlns="http://www.w3.org/2000/svg">
<g filter="url(#filter0_d_3524_5857)">
<path d="M35 26C36.4186 24.6137 37.5099 21.6232 37.5995 19.6236C37.7158 17.1752 37.1893 14.9358 35.8071 12.8888C34.6818 11.2516 33.3699 9.78709 31.795 8.57708C31.2147 8.12955 30.6265 7.69204 30.0388 7.25495C29.359 6.74929 28.6799 6.2442 28.0146 5.72481C26.7277 4.71988 25.2736 4.18921 23.6705 4.01751C21.7881 3.8102 19.8945 3.78995 18.012 4.08575C17.1639 4.21486 16.2998 4.42185 15.5068 4.75703C10.3666 6.94482 8.02488 10.217 5.94979 15.1218C5.13766 17.0327 4.84747 19.0616 4.78779 21.1268C4.71968 23.7096 5.57874 25.909 7.37725 27.7708C8.76929 29.2138 10.3349 30.3895 12.1084 31.2886C13.8529 32.1709 16.0875 32.6844 18.012 32.5C24.2193 31.899 30.48 30.4412 35 26Z" fill="white"/>
</g>
<path d="M22.0617 17.4773C23.2054 17.7098 21.9683 18.2515 21.2434 18.6231C18.2974 20.1331 15.7483 21.051 12.8594 23.1996C12.5226 23.5773 12.8143 24.1952 13.3645 24.0776C16.7695 22.9079 19.0015 21.8801 22.1698 20.1837C22.3917 20.0649 23.2142 19.7755 23.2099 20.2545C23.2092 20.3278 23.1863 21.2891 23.2649 21.5682C23.4238 22.1215 24.1803 22.2988 24.5352 21.8762C25.5837 20.6073 28.8443 17.1283 28.4397 15.864C28.0995 14.8009 24.6731 15.7826 23.5118 15.7322C22.6156 15.6942 20.7265 15.7644 20.2515 16.52C19.631 17.5072 21.1392 17.2898 22.0617 17.4773Z" fill="#063B59"/>
<defs>
<filter id="filter0_d_3524_5857" x="0.784058" y="3.86255" width="40.8311" height="36.6748" filterUnits="userSpaceOnUse" color-interpolation-filters="sRGB">
<feFlood flood-opacity="0" result="BackgroundImageFix"/>
<feColorMatrix in="SourceAlpha" type="matrix" values="0 0 0 0 0 0 0 0 0 0 0 0 0 0 0 0 0 0 127 0" result="hardAlpha"/>
<feOffset dy="4"/>
<feGaussianBlur stdDeviation="2"/>
<feComposite in2="hardAlpha" operator="out"/>
<feColorMatrix type="matrix" values="0 0 0 0 0.725704 0 0 0 0 0.72219 0 0 0 0 0.72219 0 0 0 0.25 0"/>
<feBlend mode="normal" in2="BackgroundImageFix" result="effect1_dropShadow_3524_5857"/>
<feBlend mode="normal" in="SourceGraphic" in2="effect1_dropShadow_3524_5857" result="shape"/>
</filter>
</defs>
</svg>
