<svg width="91" height="35" viewBox="0 0 91 35" fill="none" xmlns="http://www.w3.org/2000/svg">
<path d="M37.864 17.0033C37.7749 16.5538 37.6716 16.1346 37.6109 15.7094C37.5562 15.3388 37.7182 15.025 37.9693 14.7597C38.2102 14.5066 38.4634 14.2636 38.7043 14.0105C38.9736 13.727 39.1093 13.3949 39 13.0021C38.8805 12.5748 38.4593 12.4209 38.0867 12.6619C37.9936 12.7226 37.9085 12.7996 37.8255 12.8745C37.4752 13.1884 37.0864 13.3321 36.6025 13.2511C35.8836 13.1276 35.3672 13.399 35.0068 14.0449C34.8873 14.2596 34.7334 14.4276 34.4479 14.5066C34.6585 14.0368 34.7213 13.5427 35.021 13.1377C35.3267 12.7226 35.7581 12.5201 36.2319 12.3784C36.4587 12.3116 36.6895 12.2488 36.9021 12.1475C37.3213 11.9471 37.5663 11.6028 37.621 11.1371C37.6595 10.8212 37.4023 10.5701 37.0864 10.6106C36.9528 10.6289 36.8211 10.6734 36.6915 10.7119C36.0557 10.9042 35.4766 10.7827 34.9724 10.3676C34.6443 10.0983 34.3285 10.1003 33.968 10.2765C33.6886 10.4122 33.399 10.5276 33.1074 10.639C33.0366 10.6653 32.9475 10.643 32.8543 10.643C33.1601 10.3373 33.4436 10.0355 33.7493 9.75813C34.0895 9.45034 34.5127 9.43617 34.942 9.48882C35.2883 9.53134 35.6305 9.60424 35.9788 9.62449C36.4222 9.65081 36.8191 9.50097 37.1492 9.19723C37.3051 9.05548 37.4266 8.88539 37.378 8.66872C37.3274 8.4318 37.131 8.33258 36.9163 8.27588C36.813 8.24956 36.7077 8.23539 36.6025 8.21514C36.1651 8.12402 35.8431 7.86482 35.6042 7.49831C35.4746 7.29987 35.3551 7.09535 35.2275 6.89691C35.0777 6.66404 34.861 6.54862 34.5836 6.56077C34.3062 6.57292 34.0267 6.59722 33.7493 6.60329C33.5347 6.60734 33.3281 6.57494 33.1702 6.41903C33.5327 6.28943 33.883 6.15376 34.2434 6.04036C34.8246 5.85609 35.3409 6.03631 35.8229 6.3603C36.1225 6.5628 36.4162 6.77339 36.726 6.96171C37.0864 7.1804 37.4792 7.22495 37.8923 7.13382C38.3479 7.03258 38.516 6.56077 38.2123 6.20438C38.1697 6.15578 38.1232 6.10719 38.0705 6.07074C37.6048 5.75485 37.3942 5.29316 37.3152 4.75453C37.2909 4.58444 37.2808 4.41232 37.2687 4.2402C37.2403 3.86761 37.0763 3.59222 36.7219 3.43226C36.4405 3.30468 36.1691 3.16091 35.8958 3.01714C35.7115 2.91995 35.5596 2.78225 35.4766 2.59393C35.7824 2.65671 36.0841 2.72555 36.3878 2.7782C36.568 2.8106 36.7563 2.80453 36.9345 2.84098C37.5825 2.97462 37.9612 3.41808 38.2163 3.99114C38.3338 4.2564 38.4249 4.53179 38.5444 4.79706C38.7327 5.21217 39.0162 5.51996 39.4941 5.59285C39.7755 5.63538 40.0246 5.57665 40.2129 5.34784C40.3992 5.12307 40.3668 4.88615 40.2736 4.62899C40.1825 4.37587 40.0894 4.11263 40.0712 3.84939C40.057 3.65095 40.1198 3.42011 40.219 3.24191C40.6564 2.46636 40.5754 1.73334 40.0934 1.01854C39.9699 0.834271 39.8403 0.652027 39.7127 0.469784L39.7593 0.417135C40.0246 0.605454 40.306 0.773523 40.5551 0.984116C40.9601 1.32633 41.2942 1.73131 41.3631 2.28007C41.3874 2.48054 41.3732 2.69923 41.3205 2.89362C41.1444 3.5416 41.276 4.11466 41.6891 4.62899C41.8288 4.80313 41.9888 4.96513 42.1508 5.12307C42.2743 5.24457 42.4302 5.28709 42.5942 5.21217C42.7481 5.14129 42.7825 5.00157 42.7886 4.84363C42.8028 4.3941 43.0296 4.05391 43.3414 3.74612C43.6067 3.4849 43.8537 3.20344 44.0987 2.91995C44.3195 2.66481 44.4167 2.35702 44.4248 2.01885C44.4268 1.92166 44.4551 1.81839 44.4977 1.73131C44.6495 1.42757 44.6475 1.13194 44.5078 0.826171C44.3822 0.552806 44.4045 0.289565 44.6313 0C44.6313 0.368537 44.8702 0.56698 45.0201 0.814021C45.1031 0.951717 45.1477 1.13599 45.1477 1.29798C45.1456 1.61589 45.172 1.92166 45.2691 2.2254C45.3744 2.54939 45.2934 2.8592 45.1173 3.14269C44.9553 3.40391 44.773 3.655 44.6212 3.92229C44.3944 4.32322 44.279 4.75251 44.3519 5.22027C44.4329 5.73662 44.8561 5.92089 45.2732 5.60703C45.419 5.49768 45.5506 5.36606 45.666 5.22432C45.9597 4.85983 46.3282 4.62696 46.7959 4.58646C47.5512 4.52167 47.9886 4.10656 48.1871 3.39581C48.2539 3.15686 48.345 2.924 48.4301 2.69113C48.4969 2.50889 48.6407 2.43599 48.7925 2.41777C48.7176 2.72758 48.6265 3.03132 48.5718 3.34113C48.5333 3.56792 48.5657 3.80484 48.5273 4.03163C48.4139 4.69581 48.015 5.16559 47.454 5.50578C47.1807 5.67183 46.8871 5.80547 46.6238 5.98367C46.2938 6.20641 46.0244 6.49395 45.903 6.88273C45.8604 7.0184 45.8402 7.18242 45.8746 7.31607C45.9718 7.69068 46.3565 7.798 46.7595 7.57121C47.0511 7.40719 47.3407 7.2533 47.6829 7.22697C47.9866 7.20267 48.2741 7.2614 48.5455 7.39099C49.1023 7.65828 49.6086 7.60361 50.0723 7.1804C50.2565 7.01233 50.4712 6.90501 50.7608 6.90501C50.7122 6.95968 50.6798 6.99411 50.6474 7.03055C50.4449 7.2614 50.2282 7.48414 50.0419 7.72713C49.6551 8.23134 49.1509 8.4318 48.5293 8.36093C48.1506 8.31841 47.776 8.30423 47.3974 8.38928C46.8648 8.50875 46.4092 8.96234 46.3221 9.47869C46.2593 9.85128 46.4882 10.155 46.8688 10.1773C47.0511 10.1874 47.2374 10.1712 47.4156 10.1368C47.9076 10.0416 48.3167 10.1813 48.6123 10.5782C48.9626 11.048 49.4081 11.2039 49.969 11.0784C50.048 11.0602 50.1351 11.0784 50.2505 11.0824C49.8374 11.2566 49.4749 11.4327 49.0963 11.5664C48.6731 11.7162 48.2701 11.619 47.8854 11.3983C47.6302 11.2525 47.369 11.1067 47.0936 11.0075C46.8061 10.9042 46.5064 10.9549 46.2229 11.0662C45.8726 11.2039 45.7531 11.5239 45.9171 11.8641C46.0366 12.1131 46.2229 12.3014 46.4598 12.4351C46.8607 12.6639 47.1017 13.0061 47.203 13.4496C47.2961 13.8647 47.5533 14.1077 47.9623 14.2049C48.2053 14.2636 48.4361 14.3466 48.6123 14.5491C48.1871 14.5248 47.772 14.5208 47.3589 14.4722C46.9458 14.4256 46.6198 14.1927 46.3606 13.8768C46.2006 13.6804 46.0649 13.4638 45.9131 13.2592C45.6498 12.9028 45.3137 12.668 44.852 12.7631C44.6738 12.7996 44.4977 12.9211 44.3539 13.0446C44.2 13.1762 44.2142 13.4273 44.3458 13.6359C44.4025 13.725 44.4754 13.806 44.5422 13.889C44.8378 14.2494 44.9107 14.6423 44.7467 15.0837C44.5057 15.7317 44.5604 15.9099 45.0808 16.3918C45.2287 16.5295 45.3501 16.6915 45.4858 16.8434C45.4716 16.8596 45.4554 16.8758 45.4413 16.8899C45.4028 16.8737 45.3603 16.8596 45.3238 16.8373C45.095 16.7117 44.8723 16.5761 44.6374 16.4627C44.1392 16.2197 43.8578 15.8268 43.7667 15.2842C43.712 14.9561 43.6553 14.6301 43.5783 14.3081C43.5176 14.055 43.3151 13.4435 41.8308 13.1641C41.6749 13.1276 41.5149 13.1155 41.357 13.0871C39.9132 12.838 38.8461 11.7102 38.6152 10.2623C38.3743 8.75579 39.3037 7.38897 40.6908 6.91716C42.1548 6.42105 43.7424 7.09535 44.3802 8.48243C44.7933 9.37745 44.5969 10.4264 43.8922 11.1027C43.147 11.8175 42.1427 11.9957 41.2881 11.5482C40.6888 11.2343 40.2736 10.7665 40.1846 10.072C40.061 9.11623 40.6786 8.31436 41.6324 8.18679C42.4383 8.07947 43.3596 8.72947 43.1551 9.71358C43.0539 10.1975 42.5942 10.562 42.1406 10.4912C41.9179 10.4567 41.7377 10.3474 41.6263 10.1489C41.4886 9.90798 41.6324 9.66904 41.9078 9.67916C42.3411 9.69738 42.414 9.51312 42.4059 9.28835C42.3998 9.08991 42.2318 8.92994 42.0131 8.88741C41.4137 8.77199 40.8346 9.28835 40.8811 9.89785C40.9338 10.5823 41.4987 11.1148 42.2196 11.1533C43.2807 11.212 43.9671 10.4527 43.8517 9.33695C43.7829 8.6667 43.4427 8.17261 42.8453 7.86077C42.2581 7.55501 41.6364 7.43554 40.9864 7.60158C39.9578 7.8628 39.5184 8.74769 39.4839 9.59411C39.4353 10.7726 40.2696 12.0281 41.3671 12.3966C42.5213 12.7834 43.5621 12.5444 44.4653 11.7203C45.1517 11.0946 45.5486 10.3231 45.5405 9.38757C45.5324 8.40548 45.1456 7.57728 44.3903 6.93943C43.6391 6.3036 42.7724 5.95127 41.7802 5.98164C41.0026 6.00391 40.2959 6.26716 39.656 6.70454C39.1356 7.06093 38.6861 7.48414 38.3763 8.04099C37.8944 8.90564 37.9308 9.79863 38.2386 10.7078C38.4856 11.4368 38.8764 12.0787 39.3888 12.6497C39.569 12.8522 39.7553 13.0567 39.9051 13.2815C40.1724 13.6845 40.1319 14.0834 39.7674 14.3972C39.5143 14.6159 39.2288 14.8124 38.9291 14.9561C38.3905 15.2153 38.111 15.6061 38.107 16.2096C38.107 16.4768 38.0908 16.7583 37.8761 16.9993L37.864 17.0033Z" fill="#FAA61A"/>
<path d="M10.9265 30.4941V29.5221C9.74801 31.4357 7.77573 31.9966 5.7427 31.9966C2.47446 31.9966 0 30.2876 0 27.1671C0 24.0467 2.8268 22.1615 6.42105 22.1615C8.06934 22.1615 9.33695 22.4268 10.8678 22.8986C10.8678 20.0131 9.42402 18.8042 6.86248 18.8042C5.71435 18.8042 4.56621 19.0694 3.50515 19.4218C2.59191 19.7154 1.65032 19.3631 1.44377 18.3607L1.26761 17.4779C1.97431 17.0951 4.21185 16.0645 7.12775 16.0645C11.8701 16.0645 13.9315 18.6564 13.9315 22.8682V31.7617H12.2225C11.3983 31.7617 10.9265 31.2312 10.9265 30.4961V30.4941ZM6.56887 29.5809C8.27791 29.5809 10.8678 28.5805 10.8678 25.8712V25.0167C9.54146 24.5449 8.54115 24.31 7.03865 24.31C4.44674 24.31 3.06372 25.4581 3.06372 27.0193C3.06372 28.7871 4.85983 29.5809 6.56887 29.5809Z" fill="#4A8ECC"/>
<path d="M22.5599 17.6866L26.5065 26.3735L30.4227 17.6562C30.8054 16.8321 31.5425 16.3906 32.3666 16.3906H34.6042L26.9763 31.7639H25.976L18.3784 16.3906H20.5876C21.4421 16.3906 22.1772 16.8624 22.5599 17.6866Z" fill="#4A8ECC"/>
<path d="M40.4058 30.231V16.3906H41.9366C42.8195 16.3906 43.4675 17.0386 43.4675 17.9215V31.7619H41.9366C41.0537 31.7619 40.4058 31.1139 40.4058 30.231Z" fill="#4A8ECC"/>
<path d="M54.2763 11.6793V23.2538L59.7254 17.2458C60.1972 16.6869 60.8736 16.3913 61.5803 16.3913H64.2592L57.4555 23.9301L64.8181 31.7646H62.05C61.3433 31.7646 60.6954 31.4993 60.2236 30.9404L54.2743 24.6388V30.2337C54.2743 31.1166 53.6263 31.7646 52.7435 31.7646H51.1823V10.1484H52.7435C53.6263 10.1484 54.2743 10.7964 54.2743 11.6793H54.2763Z" fill="#4A8ECC"/>
<path d="M79.4841 30.4941V29.5221C78.3056 31.4357 76.3333 31.9966 74.3003 31.9966C71.0321 31.9966 68.5576 30.2876 68.5576 27.1671C68.5576 24.0467 71.3844 22.1615 74.9787 22.1615C76.627 22.1615 77.8946 22.4268 79.4254 22.8986C79.4254 20.0131 77.9816 18.8042 75.4201 18.8042C74.272 18.8042 73.1238 19.0694 72.0628 19.4218C71.1495 19.7154 70.2079 19.3631 70.0014 18.3607L69.8252 17.4779C70.5319 17.0951 72.7695 16.0645 75.6854 16.0645C80.4277 16.0645 82.4891 18.6564 82.4891 22.8682V31.7617H80.7801C79.9559 31.7617 79.4841 31.2312 79.4841 30.4961V30.4941ZM75.1265 29.5809C76.8335 29.5809 79.4254 28.5805 79.4254 25.8712V25.0167C78.0991 24.5449 77.0988 24.31 75.5963 24.31C73.0044 24.31 71.6213 25.4581 71.6213 27.0193C71.6213 28.7871 73.4174 29.5809 75.1265 29.5809Z" fill="#4A8ECC"/>
</svg>
