<svg width="393" height="69" viewBox="0 0 393 69" fill="none" xmlns="http://www.w3.org/2000/svg">
<g clip-path="url(#clip0_3539_2976)">
<g filter="url(#filter0_d_3539_2976)">
<path d="M327.181 36.2595L328.476 36.3403L328.296 45.2185L326.342 45.0964L327.181 36.2595Z" fill="url(#paint0_linear_3539_2976)"/>
<circle cx="328.104" cy="32.2527" r="4.37096" transform="rotate(3.57399 328.104 32.2527)" fill="url(#paint1_linear_3539_2976)"/>
<path d="M323.469 40.4328L324.117 40.4733L324.027 44.9123L323.05 44.8513L323.469 40.4328Z" fill="url(#paint2_linear_3539_2976)"/>
<circle cx="323.977" cy="37.861" r="2.79264" transform="rotate(3.57399 323.977 37.861)" fill="url(#paint3_linear_3539_2976)"/>
<path d="M334.021 39.3354L330.87 39.0383L341 32.7372L348.049 40.658L347.217 40.5796L346.595 46.5957L333.438 45.5174L334.021 39.3354Z" fill="url(#paint4_linear_3539_2976)"/>
<path d="M346.578 46.5809L347.231 40.5923L367.158 42.4712L366.551 48.3595L346.578 46.5809Z" fill="url(#paint5_linear_3539_2976)"/>
<path d="M362.875 34.8L341.088 32.7457L348.053 40.6288L369.363 42.638L362.875 34.8Z" fill="url(#paint6_linear_3539_2976)"/>
<ellipse cx="197" cy="444.166" rx="868.677" ry="403.523" fill="url(#paint7_linear_3539_2976)"/>
<path d="M186.974 48.0646C192.355 40.3133 167.033 43.8308 87.2505 43.8308C164.269 39.2185 225.013 40.398 260.346 41.6962C229.593 44.9342 254.138 48.4744 247.621 53.0953C240.947 57.8269 225.623 57.0754 223.133 62.8263C219.385 71.4829 233.724 68.2235 227.057 71.9687L178.9 77.9248L167.72 62.8263C167.72 62.8263 201.718 59.5097 201.718 54.5518C201.718 49.5938 182.764 54.1301 186.974 48.0646Z" fill="url(#paint8_linear_3539_2976)"/>
<path d="M17.6081 49.1895C17.6081 49.1895 -22.7892 53.6696 -37.2997 55.9543C-38.1616 52.8782 -34.3275 47.241 -26.7269 49.5144C-25.0271 46.4275 -19.9928 43.8785 -12.1501 45.7362C-9.84023 43.0164 -0.958211 41.6492 2.50192 45.7362C6.03266 41.5999 17.6081 44.5732 17.6081 49.1895Z" fill="url(#paint9_linear_3539_2976)"/>
<path d="M32.5194 47.8275C32.5194 47.8275 4.89257 50.4901 -6.59352 51.9834C-6.90573 48.8645 -2.62398 44.1639 2.64542 46.8925C1.6267 39.0568 18.1923 38.968 18.1982 43.7115C26.7072 38.9836 34.376 43.2942 32.5194 47.8275Z" fill="url(#paint10_linear_3539_2976)"/>
</g>
</g>
<defs>
<filter id="filter0_d_3539_2976" x="-686.421" y="13.138" width="1766.84" height="849.294" filterUnits="userSpaceOnUse" color-interpolation-filters="sRGB">
<feFlood flood-opacity="0" result="BackgroundImageFix"/>
<feColorMatrix in="SourceAlpha" type="matrix" values="0 0 0 0 0 0 0 0 0 0 0 0 0 0 0 0 0 0 127 0" result="hardAlpha"/>
<feOffset/>
<feGaussianBlur stdDeviation="7.3718"/>
<feComposite in2="hardAlpha" operator="out"/>
<feColorMatrix type="matrix" values="0 0 0 0 0.4 0 0 0 0 0.694118 0 0 0 0 0.4 0 0 0 0.2 0"/>
<feBlend mode="normal" in2="BackgroundImageFix" result="effect1_dropShadow_3539_2976"/>
<feBlend mode="normal" in="SourceGraphic" in2="effect1_dropShadow_3539_2976" result="shape"/>
</filter>
<linearGradient id="paint0_linear_3539_2976" x1="327.872" y1="36.3026" x2="327.319" y2="45.1574" gradientUnits="userSpaceOnUse">
<stop stop-color="#523D33"/>
<stop offset="1" stop-color="#775B4E"/>
</linearGradient>
<linearGradient id="paint1_linear_3539_2976" x1="328.104" y1="27.8817" x2="328.104" y2="36.6236" gradientUnits="userSpaceOnUse">
<stop stop-color="#31712E"/>
<stop offset="1" stop-color="#538A51"/>
</linearGradient>
<linearGradient id="paint2_linear_3539_2976" x1="323.815" y1="40.4544" x2="323.538" y2="44.8818" gradientUnits="userSpaceOnUse">
<stop stop-color="#3F3029"/>
<stop offset="1" stop-color="#775B4E"/>
</linearGradient>
<linearGradient id="paint3_linear_3539_2976" x1="323.977" y1="35.0684" x2="323.977" y2="40.6537" gradientUnits="userSpaceOnUse">
<stop stop-color="#619252"/>
<stop offset="1" stop-color="#6FA65F"/>
</linearGradient>
<linearGradient id="paint4_linear_3539_2976" x1="339.507" y1="33.5358" x2="343.076" y2="46.4392" gradientUnits="userSpaceOnUse">
<stop stop-color="#634A41"/>
<stop offset="1" stop-color="#86695F"/>
</linearGradient>
<linearGradient id="paint5_linear_3539_2976" x1="357.151" y1="41.5276" x2="356.585" y2="47.5245" gradientUnits="userSpaceOnUse">
<stop stop-color="#967C61"/>
<stop offset="1" stop-color="#BD9D7C"/>
</linearGradient>
<linearGradient id="paint6_linear_3539_2976" x1="352.075" y1="34.0729" x2="353.308" y2="41.3056" gradientUnits="userSpaceOnUse">
<stop stop-color="#BDA964"/>
<stop offset="1" stop-color="#ECDA9D"/>
</linearGradient>
<linearGradient id="paint7_linear_3539_2976" x1="177.243" y1="35.6801" x2="177.243" y2="63.782" gradientUnits="userSpaceOnUse">
<stop stop-color="#B9E1A8"/>
<stop offset="1" stop-color="#B9E1A8" stop-opacity="0"/>
</linearGradient>
<linearGradient id="paint8_linear_3539_2976" x1="174.972" y1="39.2462" x2="174.972" y2="77.9248" gradientUnits="userSpaceOnUse">
<stop stop-color="white"/>
<stop offset="1" stop-color="white" stop-opacity="0"/>
</linearGradient>
<linearGradient id="paint9_linear_3539_2976" x1="-12.4894" y1="44.1565" x2="-10.9881" y2="53.6919" gradientUnits="userSpaceOnUse">
<stop stop-color="#5EA95E"/>
<stop offset="1" stop-color="#71BE71"/>
</linearGradient>
<linearGradient id="paint10_linear_3539_2976" x1="11.9613" y1="40.3287" x2="13.2617" y2="50.3312" gradientUnits="userSpaceOnUse">
<stop stop-color="#427842"/>
<stop offset="1" stop-color="#589E58"/>
</linearGradient>
<clipPath id="clip0_3539_2976">
<rect width="758.41" height="69" fill="white" transform="translate(-182.205)"/>
</clipPath>
</defs>
</svg>
