<svg width="1364" height="714" viewBox="0 0 1364 714" fill="none" xmlns="http://www.w3.org/2000/svg">
<g opacity="0.6">
<path d="M487.777 632.447C485.401 632.447 485.399 636.139 487.777 636.139C490.152 636.139 490.157 632.447 487.777 632.447Z" fill="#5F6363"/>
<path d="M647.51 639.57C645.137 639.57 645.132 643.262 647.51 643.262C649.888 643.262 649.892 639.57 647.51 639.57Z" fill="#5F6363"/>
<path d="M639.198 539.078C636.825 539.078 636.821 542.771 639.198 542.771C641.576 542.771 641.578 539.078 639.198 539.078Z" fill="#5F6363"/>
<path d="M611.901 681.226C609.526 681.226 609.524 684.918 611.901 684.918C614.277 684.918 614.281 681.226 611.901 681.226Z" fill="#5F6363"/>
<path d="M176.665 702.621C174.29 702.621 174.285 706.314 176.665 706.314C179.041 706.314 179.045 702.621 176.665 702.621Z" fill="#5F6363"/>
<path d="M213.69 653.062C211.314 653.062 211.31 656.754 213.69 656.754C216.063 656.754 216.067 653.062 213.69 653.062Z" fill="#5F6363"/>
<path d="M297.393 629.723C295.02 629.723 295.015 633.412 297.393 633.412C299.771 633.412 299.773 629.723 297.393 629.723Z" fill="#5F6363"/>
<path d="M278.881 561.308C276.508 561.308 276.503 565 278.881 565C281.259 565 281.261 561.308 278.881 561.308Z" fill="#5F6363"/>
<path d="M106.446 28.2908C104.073 28.2908 104.068 31.9824 106.446 31.9824C108.821 31.9824 108.826 28.2908 106.446 28.2908Z" fill="#5F6363"/>
<path d="M140.353 113.515C137.978 113.515 137.976 117.209 140.353 117.209C142.729 117.209 142.733 113.515 140.353 113.515Z" fill="#5F6363"/>
<path d="M241.158 70.4454C238.783 70.4454 238.78 74.1348 241.158 74.1348C243.534 74.1348 243.538 70.4454 241.158 70.4454Z" fill="#5F6363"/>
<path d="M299.809 152.922C297.431 152.922 297.429 156.613 299.809 156.613C302.182 156.613 302.187 152.922 299.809 152.922Z" fill="#5F6363"/>
<path d="M456.513 141.924C454.138 141.924 454.133 145.615 456.513 145.615C458.889 145.615 458.893 141.924 456.513 141.924Z" fill="#5F6363"/>
<path d="M1314.05 664.318C1311.68 664.318 1311.67 668.01 1314.05 668.01C1316.43 668.01 1316.43 664.318 1314.05 664.318Z" fill="#5F6363"/>
<path d="M1245.87 574.673C1243.5 574.673 1243.49 578.367 1245.87 578.367C1248.25 578.367 1248.25 574.673 1245.87 574.673Z" fill="#5F6363"/>
<path d="M1308.22 472.912C1305.84 472.912 1305.84 476.604 1308.22 476.604C1310.59 476.604 1310.6 472.912 1308.22 472.912Z" fill="#5F6363"/>
<path d="M1344.52 344.635C1342.15 344.635 1342.15 348.326 1344.52 348.326C1346.9 348.326 1346.9 344.635 1344.52 344.635Z" fill="#5F6363"/>
<path d="M144.903 241.777C142.529 241.777 142.525 245.469 144.903 245.469C147.278 245.469 147.283 241.777 144.903 241.777Z" fill="#5F6363"/>
<path d="M45.8365 310.886C43.4611 310.886 43.4565 314.578 45.8365 314.578C48.2097 314.578 48.2142 310.886 45.8365 310.886Z" fill="#5F6363"/>
<path d="M1245.24 216.084C1242.86 216.084 1242.86 219.775 1245.24 219.775C1247.61 219.775 1247.62 216.084 1245.24 216.084Z" fill="#5F6363"/>
<path d="M1300.16 83.5291C1297.79 83.5291 1297.78 87.2207 1300.16 87.2207C1302.54 87.2207 1302.54 83.5291 1300.16 83.5291Z" fill="#5F6363"/>
<path d="M941.027 302.929C938.649 302.929 938.647 306.621 941.027 306.621C943.402 306.621 943.405 302.929 941.027 302.929Z" fill="#5F6363"/>
<path d="M961.495 648.919C959.12 648.919 959.115 652.613 961.495 652.613C963.873 652.613 963.875 648.919 961.495 648.919Z" fill="#5F6363"/>
<path d="M1003.73 522.933C1001.35 522.933 1001.35 526.625 1003.73 526.625C1006.1 526.625 1006.11 522.933 1003.73 522.933Z" fill="#5F6363"/>
<path d="M1028.46 651.763C1026.09 651.763 1026.08 655.455 1028.46 655.455C1030.84 655.455 1030.84 651.763 1028.46 651.763Z" fill="#5F6363"/>
<path d="M29.4882 655.888C27.113 655.888 27.1094 659.58 29.4882 659.58C31.8634 659.58 31.8679 655.888 29.4882 655.888Z" fill="#515355"/>
<path d="M158.336 504.201C155.96 504.201 155.958 507.895 158.336 507.895C160.711 507.895 160.716 504.201 158.336 504.201Z" fill="#515355"/>
<path d="M410.068 680.207C407.693 680.207 407.691 683.898 410.068 683.898C412.444 683.898 412.448 680.207 410.068 680.207Z" fill="#515355"/>
<path d="M48.8038 110.269C46.4277 110.269 46.4234 113.961 48.8038 113.961C51.1781 113.961 51.1826 110.269 48.8038 110.269Z" fill="#515355"/>
<path d="M1109.54 704.05C1107.17 704.05 1107.16 707.744 1109.54 707.744C1111.92 707.744 1111.92 704.05 1109.54 704.05Z" fill="#515355"/>
<path d="M1361.28 577.224C1358.9 577.224 1358.9 580.916 1361.28 580.916C1363.65 580.916 1363.65 577.224 1361.28 577.224Z" fill="#515355"/>
<path d="M704.079 154.467C701.701 154.467 701.699 158.156 704.079 158.156C706.454 158.156 706.459 154.467 704.079 154.467Z" fill="#515355"/>
<path d="M961.576 127.565C959.201 127.565 959.196 131.254 961.576 131.254C963.952 131.254 963.956 127.565 961.576 127.565Z" fill="#515355"/>
<path d="M515.759 479.22C513.384 479.22 513.379 482.912 515.759 482.912C518.135 482.912 518.139 479.22 515.759 479.22Z" fill="#515355"/>
<path d="M19.9781 546.478C17.6038 546.478 17.5993 550.17 19.9781 550.17C22.3542 550.17 22.3576 546.478 19.9781 546.478Z" fill="#B7E5BE"/>
<path d="M1228.68 709.818C1226.31 709.818 1226.3 713.508 1228.68 713.508C1231.06 713.508 1231.06 709.818 1228.68 709.818Z" fill="#B7E5BE"/>
<path d="M1040.36 306.273C1037.99 306.273 1037.98 309.965 1040.36 309.965C1042.74 309.965 1042.74 306.273 1040.36 306.273Z" fill="#B7E5BE"/>
<path d="M819.375 83.3667C817.002 83.3667 816.997 87.0583 819.375 87.0583C821.75 87.0583 821.755 83.3667 819.375 83.3667Z" fill="#B7E5BE"/>
<path d="M548.427 386.984C546.052 386.984 546.047 390.674 548.427 390.674C550.802 390.674 550.805 386.984 548.427 386.984Z" fill="#B7E5BE"/>
<path d="M836.67 675.228C834.295 675.228 834.29 678.92 836.67 678.92C839.046 678.92 839.05 675.228 836.67 675.228Z" fill="#B7E5BE"/>
<path d="M324.575 321.199C322.2 321.199 322.195 324.891 324.575 324.891C326.951 324.891 326.955 321.199 324.575 321.199Z" fill="#B7E5BE"/>
<path d="M548.427 179.447C546.052 179.447 546.047 183.139 548.427 183.139C550.802 183.139 550.805 179.447 548.427 179.447Z" fill="#B7E5BE"/>
<path d="M1151.82 87.2088C1149.44 87.2088 1149.44 90.9004 1151.82 90.9004C1154.19 90.9004 1154.2 87.2088 1151.82 87.2088Z" fill="#B7E5BE"/>
<path d="M148.728 214.035C146.353 214.035 146.348 217.729 148.728 217.729C151.104 217.729 151.108 214.035 148.728 214.035Z" fill="#B7E5BE"/>
<path d="M116.917 535.367C114.541 535.367 114.537 539.058 116.917 539.058C119.292 539.058 119.294 535.367 116.917 535.367Z" fill="#DDA481"/>
<path d="M431.206 617.578C428.833 617.578 428.828 621.271 431.206 621.271C433.584 621.271 433.586 617.578 431.206 617.578Z" fill="#DDA481"/>
<path d="M490.708 330.006C488.333 330.006 488.328 333.697 490.708 333.697C493.084 333.697 493.086 330.006 490.708 330.006Z" fill="#DDA481"/>
<path d="M863.418 626.364C861.042 626.364 861.038 630.057 863.418 630.057C865.791 630.057 865.796 626.364 863.418 626.364Z" fill="#DDA481"/>
<path d="M746.354 502.281C743.979 502.281 743.974 505.973 746.354 505.973C748.729 505.973 748.734 502.281 746.354 502.281Z" fill="#DDA481"/>
<path d="M896.241 281.293C893.865 281.293 893.861 284.984 896.241 284.984C898.616 284.984 898.618 281.293 896.241 281.293Z" fill="#DDA481"/>
<path d="M769.591 312.635C767.218 312.635 767.213 316.326 769.591 316.326C771.967 316.326 771.971 312.635 769.591 312.635Z" fill="#DDA481"/>
<path d="M617.605 154.467C615.23 154.467 615.225 158.156 617.605 158.156C619.981 158.156 619.985 154.467 617.605 154.467Z" fill="#DDA481"/>
<path d="M444.659 400.433C442.283 400.433 442.279 404.127 444.659 404.127C447.034 404.127 447.039 400.433 444.659 400.433Z" fill="#DDA481"/>
<path d="M-1.1595 206.351C-3.53471 206.351 -3.53832 210.043 -1.1595 210.043C1.2166 210.043 1.21998 206.351 -1.1595 206.351Z" fill="#DDA481"/>
<path d="M10.3706 31.4803C7.99541 31.4803 7.99091 35.1719 10.3706 35.1719C12.7458 35.1719 12.7492 31.4803 10.3706 31.4803Z" fill="#DDA481"/>
<path d="M978.872 54.5408C976.496 54.5408 976.492 58.2324 978.872 58.2324C981.247 58.2324 981.249 54.5408 978.872 54.5408Z" fill="#DDA481"/>
</g>
</svg>
